<?xml version="1.0" standalone="no"?>
<!DOCTYPE svg PUBLIC "-//W3C//DTD SVG 20010904//EN"
 "http://www.w3.org/TR/2001/REC-SVG-20010904/DTD/svg10.dtd">
<svg version="1.0" xmlns="http://www.w3.org/2000/svg"
 width="1077.000000pt" height="1079.000000pt" viewBox="0 0 1077.000000 1079.000000"
 preserveAspectRatio="xMidYMid meet">

<g transform="translate(0.000000,1079.000000) scale(0.100000,-0.100000)"
fill="#000000" stroke="none">
<path d="M4580 10656 c-80 -19 -172 -42 -205 -53 -33 -11 -98 -30 -144 -44
-70 -20 -88 -29 -110 -58 -71 -94 -125 -125 -211 -118 -30 3 -74 10 -96 18
-40 12 -43 11 -80 -18 -22 -16 -62 -42 -90 -57 -28 -15 -84 -57 -124 -92 -50
-43 -89 -69 -120 -78 -87 -26 -142 -70 -195 -156 -16 -25 -45 -65 -66 -90 -20
-25 -49 -74 -64 -110 -15 -36 -37 -86 -50 -112 -33 -66 -67 -243 -72 -378 -5
-108 -3 -120 25 -202 36 -104 133 -253 191 -295 22 -15 52 -49 66 -75 15 -27
32 -48 39 -48 7 0 26 -12 41 -26 24 -23 27 -31 23 -74 -4 -37 -14 -61 -41 -96
-22 -28 -45 -76 -58 -119 -29 -95 -26 -91 -134 -149 -11 -6 -22 -14 -25 -17
-3 -3 -21 -14 -40 -25 -19 -10 -37 -21 -40 -24 -3 -3 -52 -36 -110 -75 -58
-38 -112 -75 -120 -82 -8 -6 -51 -40 -95 -75 -44 -34 -81 -66 -83 -70 -2 -5
-10 -8 -17 -8 -7 0 -15 -3 -17 -7 -1 -5 -39 -39 -83 -78 -80 -70 -346 -334
-418 -414 -21 -23 -68 -79 -104 -124 -36 -45 -70 -83 -75 -85 -4 -2 -8 -10 -8
-18 0 -8 -5 -14 -11 -14 -6 0 -8 -7 -5 -16 3 -8 2 -12 -4 -9 -5 3 -26 -20 -47
-52 -21 -32 -43 -64 -50 -71 -13 -14 -141 -205 -158 -237 -36 -65 -68 -121
-75 -130 -19 -25 -90 -167 -90 -180 0 -8 -4 -15 -10 -15 -5 0 -10 -4 -10 -9 0
-5 -18 -49 -41 -98 -22 -48 -48 -104 -56 -123 -9 -19 -20 -43 -24 -52 -5 -10
-9 -27 -9 -38 0 -11 -4 -20 -8 -20 -4 0 -16 -24 -26 -52 -10 -29 -21 -62 -26
-73 -25 -62 -40 -108 -40 -125 0 -11 -4 -20 -9 -20 -5 0 -11 -12 -14 -27 -3
-16 -13 -55 -22 -88 -9 -33 -19 -71 -22 -85 -2 -14 -7 -32 -11 -40 -3 -8 -7
-22 -8 -30 -2 -8 -8 -33 -14 -55 -7 -22 -14 -56 -17 -75 -2 -19 -8 -44 -13
-55 -6 -11 -15 -56 -21 -100 -6 -44 -15 -105 -19 -135 -5 -30 -14 -100 -19
-155 -6 -55 -16 -140 -21 -190 -22 -188 1 -821 33 -895 3 -8 8 -40 10 -70 4
-57 20 -155 36 -225 5 -22 17 -76 26 -120 9 -44 20 -89 25 -100 4 -11 14 -42
20 -70 14 -59 58 -196 77 -242 7 -17 13 -40 13 -50 0 -10 4 -23 8 -29 4 -5 16
-34 27 -64 10 -30 21 -57 24 -60 7 -6 31 -67 38 -98 3 -12 9 -22 14 -22 5 0 9
-8 9 -17 0 -20 192 -405 210 -423 3 -3 11 -16 18 -30 17 -35 43 -80 68 -115
11 -17 24 -37 27 -45 4 -8 31 -49 62 -90 30 -41 62 -88 71 -104 9 -16 25 -39
36 -50 11 -12 34 -41 51 -66 17 -25 40 -54 52 -66 11 -11 31 -35 45 -53 111
-144 388 -424 550 -557 19 -16 37 -32 38 -36 2 -5 8 -8 12 -8 5 0 28 -18 51
-40 23 -22 46 -40 50 -40 4 0 24 -16 45 -35 22 -19 42 -35 45 -35 3 0 22 -12
41 -28 43 -33 46 -34 186 -127 63 -41 115 -75 118 -75 2 0 34 -19 71 -42 79
-48 372 -198 388 -198 5 0 30 -11 55 -24 25 -13 69 -31 98 -40 28 -10 52 -22
52 -27 0 -5 8 -9 19 -9 16 0 47 -10 116 -39 11 -5 83 -28 160 -51 77 -23 149
-45 160 -50 18 -7 143 -37 255 -61 25 -6 74 -14 109 -19 35 -5 72 -12 82 -15
50 -16 235 -35 533 -55 161 -11 234 -11 375 -1 97 6 210 14 251 17 155 9 464
55 575 84 17 5 66 16 110 26 44 9 84 21 90 26 5 4 20 8 35 8 20 0 22 2 10 11
-12 9 -11 10 6 6 27 -6 158 30 269 73 11 4 40 15 65 25 77 30 84 33 125 50 22
9 51 21 65 27 69 28 95 40 220 100 74 36 170 86 213 112 43 25 83 46 88 46 5
0 9 5 9 10 0 6 6 10 14 10 7 0 57 29 111 65 53 36 99 65 101 65 7 0 303 226
384 294 168 141 493 477 598 619 26 34 49 64 53 67 16 13 227 319 265 385 85
147 156 280 206 384 83 174 92 194 129 291 49 130 52 139 78 203 5 12 14 40
20 62 5 22 18 65 27 95 9 30 19 69 21 85 3 17 9 35 13 40 4 6 18 57 30 115 20
93 27 124 45 205 8 37 42 299 53 405 9 96 9 703 0 795 -7 71 -21 178 -37 295
-10 69 -34 196 -52 270 -5 25 -15 71 -21 103 -6 31 -15 57 -19 57 -5 0 -9 11
-9 25 0 13 -4 34 -9 47 -4 13 -21 64 -36 113 -35 115 -86 257 -97 270 -4 5 -8
19 -8 32 0 13 -4 23 -10 23 -5 0 -10 10 -10 23 0 13 -7 32 -15 43 -8 10 -15
27 -15 37 0 9 -4 17 -10 17 -5 0 -10 6 -10 13 0 7 -12 38 -26 68 -63 131 -129
264 -134 269 -3 3 -18 30 -34 60 -37 72 -89 154 -98 158 -5 2 -8 9 -8 16 0 6
-13 27 -28 46 -16 19 -31 43 -35 53 -3 9 -13 17 -21 17 -9 0 -12 7 -9 20 3 12
-1 22 -11 26 -9 3 -16 12 -16 19 0 7 -3 15 -7 17 -5 2 -24 27 -43 55 -19 29
-38 53 -42 53 -5 0 -8 7 -8 16 0 8 -4 12 -10 9 -5 -3 -10 -1 -10 5 0 14 -105
146 -204 255 -44 49 -99 109 -121 134 -32 35 -246 231 -328 301 -10 8 -31 25
-45 38 -15 13 -52 42 -82 65 -60 45 -61 46 -105 80 -32 26 -187 134 -220 154
-11 7 -60 38 -110 69 -99 63 -267 154 -285 154 -6 0 -8 -4 -5 -10 3 -5 3 -10
-2 -10 -4 0 -17 18 -27 40 -15 32 -18 53 -13 109 7 87 34 189 57 216 10 11 35
59 57 106 31 66 48 91 76 108 36 22 57 63 57 110 -1 14 -18 76 -38 136 l-37
110 -52 -3 c-50 -4 -53 -2 -73 30 -11 18 -20 44 -20 58 0 36 -8 44 -72 72 -59
27 -118 91 -176 188 -81 138 -174 240 -299 331 -49 34 -110 81 -138 104 -27
23 -76 57 -108 76 -32 19 -96 66 -141 104 -45 39 -97 80 -116 92 -39 23 -184
85 -245 104 -99 30 -127 44 -174 84 -28 24 -63 46 -78 49 -134 27 -315 35
-468 19 -142 -14 -428 20 -591 72 -43 14 -86 25 -94 24 -8 0 -80 -15 -160 -33z
m-1425 -1476 c4 -6 1 -18 -6 -26 -11 -13 -14 -13 -27 0 -8 8 -11 19 -8 25 9
14 33 14 41 1z m32 -22 c-3 -8 -6 -5 -6 6 -1 11 2 17 5 13 3 -3 4 -12 1 -19z
m83 -106 c0 -9 -5 -24 -10 -32 -7 -11 -10 -5 -10 23 0 23 4 36 10 32 6 -3 10
-14 10 -23z m-153 -88 c-9 -9 -28 6 -21 18 4 6 10 6 17 -1 6 -6 8 -13 4 -17z
m33 -74 c0 -5 -9 -10 -20 -10 -11 0 -20 5 -20 10 0 6 9 10 20 10 11 0 20 -4
20 -10z m205 -60 c-3 -5 -12 -10 -18 -10 -7 0 -6 4 3 10 19 12 23 12 15 0z"/>
</g>
</svg>
